<?xml version="1.0" encoding="UTF-8"?>
<svg width="210mm" height="297mm" version="1.1" viewBox="0 0 210 297" xmlns="http://www.w3.org/2000/svg" xmlns:cc="http://creativecommons.org/ns#" xmlns:dc="http://purl.org/dc/elements/1.1/" xmlns:rdf="http://www.w3.org/1999/02/22-rdf-syntax-ns#">
 <defs>
  <filter id="a" x="0" y="0" width="66.3" height="68" filterUnits="userSpaceOnUse">
   <feOffset dy="3" input="SourceAlpha"/>
   <feGaussianBlur result="b" stdDeviation="3"/>
   <feFlood flood-opacity=".161"/>
   <feComposite in2="b" operator="in" result="result1"/>
   <feComposite in="SourceGraphic" in2="result1"/>
  </filter>
 </defs>
 
 <g transform="matrix(3.93 0 0 3.93 -17.7 19.7)" filter="url(#a)">
  <path transform="translate(135,80)" d="m-101-24a25 25 0 0 1-8.23-1.39l14.5-14.5h17c-0.108 0.272-0.179 0.446-0.245 0.6a24.9 24.9 0 0 1-5.36 7.95 24.9 24.9 0 0 1-7.95 5.36 24.9 24.9 0 0 1-9.73 1.96zm-11.2-2.65c-0.652-0.326-1.3-0.687-1.93-1.07a25.1 25.1 0 0 1-9.04-9.72l14.4-14.4h21.8zm-12.3-13.7a24.9 24.9 0 0 1-1.52-8.62 24.8 24.8 0 0 1 1.96-9.73 24.9 24.9 0 0 1 5.36-7.95 24.9 24.9 0 0 1 7.95-5.36 24.8 24.8 0 0 1 9.73-1.96 24.9 24.9 0 0 1 8.62 1.52l-32.1 32.1z"/>
 </g>
</svg>
