<svg xmlns="http://www.w3.org/2000/svg" xmlns:xlink="http://www.w3.org/1999/xlink" width="170" height="72.999" viewBox="0 0 170 72.999"><defs><filter id="a" x="0" y="0" width="66.28" height="67.999" filterUnits="userSpaceOnUse"><feOffset dy="3" input="SourceAlpha"/><feGaussianBlur stdDeviation="3" result="b"/><feFlood flood-opacity="0.161"/><feComposite operator="in" in2="b"/><feComposite in="SourceGraphic"/></filter><filter id="c" x="48" y="18.999" width="122" height="54" filterUnits="userSpaceOnUse"><feOffset dy="3" input="SourceAlpha"/><feGaussianBlur stdDeviation="3" result="d"/><feFlood flood-opacity="0.161"/><feComposite operator="in" in2="d"/><feComposite in="SourceGraphic"/></filter></defs><g transform="translate(-185 -98.001)"><g transform="matrix(1, 0, 0, 1, 185, 98)" filter="url(#a)"><path d="M-101-24a24.981,24.981,0,0,1-8.227-1.388l14.481-14.481H-77.72c-.108.272-.179.446-.245.6a24.92,24.92,0,0,1-5.358,7.946,24.915,24.915,0,0,1-7.947,5.358A24.866,24.866,0,0,1-101-24Zm-11.209-2.649h0c-.652-.326-1.3-.687-1.926-1.074a25.115,25.115,0,0,1-9.038-9.716l14.428-14.428h21.757Zm-12.267-13.734h0A24.916,24.916,0,0,1-126-49a24.82,24.82,0,0,1,1.965-9.732,24.9,24.9,0,0,1,5.358-7.946,24.872,24.872,0,0,1,7.947-5.358A24.811,24.811,0,0,1-101-74a24.928,24.928,0,0,1,8.618,1.525l-32.091,32.091Z" transform="translate(135 80)" fill="#0d1a8c"/></g><g transform="matrix(1, 0, 0, 1, 185, 98)" filter="url(#c)"><text transform="translate(57 54)" fill="#1b1b1b" font-size="31" font-family="Trebuchet-BoldItalic, Trebuchet MS" font-weight="700" font-style="italic" letter-spacing="-0.05em"><tspan x="0" y="0">ETECSA</tspan></text></g></g></svg>