<svg xmlns="http://www.w3.org/2000/svg" width="64" height="64"><g transform="translate(0 0)"><g class="nc-icon-wrapper"><defs/><g id="Location"><path class="cls-1" d="M33 29v-1.07a7.94 7.94 0 0 0 3.9-1.62l1.39 1.4a1 1 0 0 0 1.42 0 1 1 0 0 0 0-1.42l-1.4-1.39a7.94 7.94 0 0 0 1.62-3.9H41a1 1 0 0 0 0-2h-1.07a7.94 7.94 0 0 0-1.62-3.9l1.4-1.39a1 1 0 0 0-1.42-1.42l-1.39 1.4a7.94 7.94 0 0 0-3.9-1.62V11a1 1 0 0 0-2 0v1.07a7.94 7.94 0 0 0-3.9 1.62l-1.39-1.4a1 1 0 0 0-1.42 1.42l1.4 1.39a7.94 7.94 0 0 0-1.62 3.9H23a1 1 0 0 0 0 2h1.07a7.94 7.94 0 0 0 1.62 3.9l-1.4 1.39a1 1 0 0 0 0 1.42 1 1 0 0 0 1.42 0l1.39-1.4a7.94 7.94 0 0 0 3.9 1.62V29a1 1 0 0 0 2 0zm-2-3.09A6 6 0 0 1 26.09 21a1 1 0 0 0 0-2A6 6 0 0 1 31 14.09a1 1 0 0 0 2 0A6 6 0 0 1 37.91 19a1 1 0 0 0 0 2A6 6 0 0 1 33 25.91a1 1 0 0 0-2 0z" style="" fill="#374151"/><circle class="cls-1" cx="34.5" cy="18.5" r="1.5" style="" fill="#374151"/><circle class="cls-1" cx="29" cy="19" r="1" style="" fill="#374151"/><circle class="cls-1" cx="32" cy="22" r="1" style="" fill="#374151"/><path class="cls-1" d="M47 20a15 15 0 1 0-15 15 15 15 0 0 0 15-15zm-28 0a13 13 0 1 1 13 13 13 13 0 0 1-13-13z" style="" fill="#374151"/><path class="cls-1" d="M63.87 62.5l-12-21A1 1 0 0 0 51 41h-7.18C48.11 34.91 52 27.37 52 20a20 20 0 0 0-40 0c0 7.37 3.89 14.91 8.18 21H12a1 1 0 0 0-.89.54l-11 21A1 1 0 0 0 1 64h62a1 1 0 0 0 .87-.5 1 1 0 0 0 0-1zM14 20a18 18 0 0 1 36 0c0 13.54-14.66 28.41-18 31.63C28.66 48.42 14 33.55 14 20zM2.65 62l10-19h9a84.23 84.23 0 0 0 9.69 10.74 1 1 0 0 0 1.34 0A84.23 84.23 0 0 0 42.36 43h8.06l10.86 19z" style="" fill="#374151"/></g></g></g></svg>