<svg id="SVGRoot" width="240px" height="240px" version="1.1" viewBox="0 0 240 240" xmlns="http://www.w3.org/2000/svg" xmlns:cc="http://creativecommons.org/ns#" xmlns:dc="http://purl.org/dc/elements/1.1/" xmlns:rdf="http://www.w3.org/1999/02/22-rdf-syntax-ns#">
 <metadata>
  <rdf:RDF>
   <cc:Work rdf:about="">
    <dc:format>image/svg+xml</dc:format>
    <dc:type rdf:resource="http://purl.org/dc/dcmitype/StillImage"/>
    <dc:title/>
   </cc:Work>
  </rdf:RDF>
 </metadata>
 <path d="m120 1.7a119 119 0 0 0-118 119 119 119 0 0 0 119 119 119 119 0 0 0 119-119 119 119 0 0 0-119-119 119 119 0 0 0-0.491 0zm3.11 28.7h6e-3a89.9 89.9 0 0 1 29.5 4.99l-42.8 60.6-0.728-0.015-0.029 1.07-56.2 79.5a89.9 89.9 0 0 1-19.7-56.2 89.9 89.9 0 0 1 89.9-89.9zm-6.66 73.8 48.9 0.996-69.4 101a89.9 89.9 0 0 1-36-21.8zm30.8 45.1 60.5 1.24a89.9 89.9 0 0 1-84.7 59.6 89.9 89.9 0 0 1-16.7-1.57z" fill="#271d76" stroke-miterlimit="0" stroke-width="0" style="paint-order:fill markers stroke"/>
</svg>
