<?xml version="1.0" ?><svg id="Layer_1" style="enable-background:new 0 0 52 52;" version="1.1" viewBox="0 0 52 52" xml:space="preserve" xmlns="http://www.w3.org/2000/svg" xmlns:xlink="http://www.w3.org/1999/xlink"><style type="text/css">
	.st0{fill:#374151;}
</style><g><g><path class="st0" d="M40.1671104,24.3812695c0.6447487,0.2910404,0.4584045,2.3526554,0.3504143,2.8295288    c-0.2563591,1.1320362-0.8894272,1.4268112-1.9386597,1.6977978c-1.549366,0.4001541-3.419487,0.5071259-3.9331322-1.356226    c-0.3183899-1.1550293-0.4344177-3.2341595,0.1622314-4.3034821c0.5727654-1.0265141,1.700264-0.9836102,2.6949883-0.7854996    c0.7042809,0.1402664,2.5161972,0.4441051,2.5482941,1.4162197c0.0476799,1.4441338,2.2978935,1.4506512,2.25,0    c-0.1065941-3.2284431-5.079483-4.5389061-7.6161346-3.4167576c-2.8993397,1.2825909-3.0762863,5.9355106-1.9366989,8.4853458    c1.3243217,2.9631767,5.6614761,3.0549202,8.1639404,1.5248985c2.181118-1.3335495,3.1006317-6.8112164,0.390377-8.0346355    C39.9933586,21.8474083,38.8480148,23.7858257,40.1671104,24.3812695L40.1671104,24.3812695z"/></g><g><path class="st0" d="M35.6562843,14.0171804c2.5098038-0.0019016,3.1402283,1.7583323,4.5329514,3.3557386    c0.2701263,0.3098278,0.7166939,0.3691063,1.0945663,0.28932c0.3510208-0.0261135,0.6823807-0.1149673,0.9940758-0.2665634    c3.5204964-0.5392189,4.7507973,0.1308842,3.6908913,2.0103092c-0.0152626,0.6516132-0.6528206,1.3515892-0.573494,2.0590382    c0.3033714,2.705471,4.4094734,2.2379684,2.0662804,6.1483402c-0.8723793,1.4558392-1.6969376,0.5599632-2.0241737,2.4857922    c-0.1484337,0.8735371,1.1125717,2.6754036,0.8804817,3.3363571c-0.9131966,2.6006355-3.8322449,1.1882858-5.7007217,0.6520271    c-0.5902519-0.1694069-1.2154465,0.2062035-1.3838844,0.7857437c-1.6795921,5.7790489-3.7848015-0.0780144-5.0134048-0.6382751    c-1.2183266-0.5555763-2.5351315,0.5069962-3.8461704,0.1464424c-3.0134735-0.8287468-0.7126141-2.7118645-1.3391819-4.3692226    c-0.5791645-1.5319672-2.2567654-1.8386002-2.766058-2.8914337c-1.1062126-2.286808,1.9744587-2.5059109,2.6824398-4.032486    c0.7117195-1.5346355-1.1906281-4.9529648-0.3203487-5.9623833c1.3635826-1.5815878,3.8392811,0.695219,5.5244656,0.0618267    c1.065609-0.4005184,1.9289589-2.1039448,2.5314713-2.9253378c0.8573227-1.1687679-1.0942612-2.2924252-1.9428101-1.1356182    c-2.2361107,3.0484419-4.0519619,0.0703344-6.8568172,1.4065752c-2.0759869,0.989006-1.4760075,2.8693333-1.2562065,4.8770161    c0.1750813,1.5992146,0.3389111,1.7657223-0.5683975,3.0026722c-0.5689888,0.775713-1.8656921,0.9201202-2.3557682,1.6501846    c-0.4133339,0.6157417-0.683876,1.2342052-0.6434135,2.0611229c0.0353565,0.7225571,0.3816166,1.4507847,0.8166618,2.0377026    c0.208374,0.2811146,0.5464592,0.3421497,0.7843742,0.595644c0.4659996,0.2677002,0.8782902,0.6045647,1.2368698,1.0105953    c0.8994312,0.3608055,1.0091763,0.8252678,0.3292351,1.3933926c0.154768,2.1482773-0.5996971,2.9902954,1.4131393,4.6704445    c2.0259209,1.6910706,4.1663074-0.1909409,5.9926872,0.9887466c1.6427841,1.0611038,0.9327888,3.4502487,3.7363281,3.3036461    c2.480114-0.1296844,3.4463844-2.6432037,4.0305328-4.6531181c-0.4612923,0.2619171-0.9225883,0.5238304-1.3838806,0.7857475    c2.8960075,0.8311653,8.5058594,1.9506569,8.6196938-2.7945786c-0.1530495-0.7264519-0.3790932-1.4312248-0.6781387-2.114315    c0.0231247-1.2417488,0.5801201-2.0548306,1.6709862-2.439249c0.3687134-0.4375114,0.9608727-0.7094765,1.264782-1.2215195    c0.9186096-1.5477352,0.5839806-2.887228-0.4732704-4.2085857c-0.7089615-0.8860645-2.4397964-1.3029537-2.6460953-2.489151    c-0.1661148-0.9551563,1.0736122-2.1408997,0.9201202-3.2409744c-0.1713409-1.227972-1.5397453-2.308486-2.5762444-2.794919    c-1.6037865-0.7526627-1.5946693-0.2089815-3.326767-0.2989683c-2.2763329-0.1182613-1.2351341-0.6946011-2.715538-1.7629023    c-1.6508217-1.1912766-2.0680542-1.1266079-4.4222488-1.1248245C34.2085648,11.7682781,34.2060699,14.01828,35.6562843,14.0171804    L35.6562843,14.0171804z"/></g><g><path class="st0" d="M32.453907,36.3861809c0.1415215,2.235939,0.6155281,4.9028549,0.2665596,7.1239433    c-0.6421928,4.0873833-3.0774403,5.481636-6.9274921,5.4885063c-4.9509964,0.008831-9.9019928,0.017662-14.8529892,0.0264931    c-3.0608091,0.0054588-6.0574269,0.7442322-7.6269865-3.3468132c-0.7014909-1.8284302-0.1164584-5.1322136-0.1184185-7.077034    c-0.0044906-4.4558029-0.0034935-8.9116211-0.0052404-13.3674259s-0.0034935-8.9116173-0.0052404-13.3674259    C3.1828969,8.7982397,2.1539059,4.6671681,5.8662858,3.0084784c1.3578382-0.6066813,4.3868728,0.0039046,5.8135695,0.0051744    c4.5216656,0.0040243,9.0433311,0.0080488,13.5649967,0.0120733c1.2919044,0.0011499,2.5838089,0.0022995,3.8757133,0.0034494    c2.9776058,0.5504272,4.2399311,2.007467,3.7869663,4.3711195c0.4551697,2.1099362,0.0455856,4.8283496,0.066021,6.9931207    c0.0136604,1.4470501,2.2636948,1.4506273,2.25,0c-0.0369644-3.915494,1.6870346-11.1514969-2.8606033-13.150363    c-2.0510368-0.9015129-4.9561234-0.4654021-7.1180973-0.4673263c-3.8757133-0.0034495-7.7514267-0.006899-11.62714-0.0103485    C9.2089205,0.7614535,2.467658-0.9795719,1.0373545,4.4608026c-0.7368668,2.8027844-0.1036459,6.4081187-0.1025062,9.3152542    c0.001622,4.137537,0.003244,8.275074,0.0048661,12.4126091c0.0027056,6.9015713-1.0211186,14.7043781,0.3222471,21.5031796    c1.018663,5.1554718,6.5223937,3.5889091,10.6682224,3.5815125c4.290864-0.0076561,8.581727-0.0153084,12.8725901-0.0229607    c2.4711628-0.0044098,5.7042484,0.562149,7.9983196-0.6595917c4.0671806-2.1660385,2.1250038-10.694191,1.902813-14.2046242    C34.6128845,34.9481239,32.362236,34.9378548,32.453907,36.3861809L32.453907,36.3861809z"/></g><g><path class="st0" d="M2.3226275,11.1422205c10.375,0,20.75,0,31.125,0c1.4477654,0,1.4501648-2.25,0-2.25    c-10.375,0-20.75,0-31.125,0C0.8748599,8.8922205,0.8724619,11.1422205,2.3226275,11.1422205L2.3226275,11.1422205z"/></g><g><path class="st0" d="M2.1976275,41.0172195c10.125,0,20.25,0,30.375,0c1.4477654,0,1.4501648-2.25,0-2.25    c-10.125,0-20.25,0-30.375,0C0.7498599,38.7672195,0.7474619,41.0172195,2.1976275,41.0172195L2.1976275,41.0172195z"/></g><g><path class="st0" d="M16.4481335,45.653923c1.3361492-0.0518723,2.6694126-0.0339508,4.0036678,0.0538101    c1.4456158,0.0950813,1.4398174-2.1553001,0-2.25c-1.3342743-0.0877609-2.6675377-0.1056786-4.0036678-0.0538101    C15.004962,43.4599457,14.9977226,45.710228,16.4481335,45.653923L16.4481335,45.653923z"/></g></g></svg>